<?xml version="1.0" standalone="no"?>
<!DOCTYPE svg PUBLIC "-//W3C//DTD SVG 20010904//EN"
 "http://www.w3.org/TR/2001/REC-SVG-20010904/DTD/svg10.dtd">
<svg version="1.0" xmlns="http://www.w3.org/2000/svg"
 width="93.000000pt" height="93.000000pt" viewBox="0 0 93.000000 93.000000"
 preserveAspectRatio="xMidYMid meet">
<metadata>
Created by potrace 1.14, written by Peter Selinger 2001-2017
</metadata>
<g transform="translate(0.000000,93.000000) scale(0.100000,-0.100000)"
fill="#000000" stroke="none">
<path d="M390 884 c-14 -3 -46 -14 -72 -26 -47 -21 -66 -42 -48 -53 6 -4 10 0
10 8 0 30 122 66 207 60 57 -3 168 -47 159 -62 -3 -5 -15 -7 -25 -4 -10 3 -28
0 -40 -7 -34 -17 -159 -20 -220 -4 -73 19 -88 13 -64 -26 9 -16 20 -30 23 -31
3 0 23 -3 45 -6 44 -6 124 -7 198 -2 31 2 49 8 52 19 3 8 21 33 41 55 28 31
32 34 19 11 -10 -16 -27 -45 -38 -65 -12 -20 -25 -39 -30 -42 -5 -4 -4 -16 3
-28 10 -20 10 -22 -7 -13 -13 7 -26 6 -43 -3 -13 -7 -31 -10 -39 -7 -9 3 -12
1 -7 -6 4 -7 3 -12 -1 -12 -5 0 -14 -10 -22 -21 -11 -19 -11 -21 2 -16 9 3 17
2 19 -3 8 -21 77 -15 85 8 11 28 31 45 35 29 2 -11 10 -10 33 5 28 16 28 18 8
18 -29 0 -29 13 1 42 13 13 29 32 35 43 11 17 11 14 7 -20 l-6 -41 34 4 c19 2
37 -1 40 -7 5 -7 -1 -11 -14 -11 -30 0 -62 -19 -54 -32 3 -5 34 -23 68 -38 58
-27 59 -29 28 -29 -23 -1 -31 3 -26 11 5 7 3 8 -7 2 -19 -12 -40 -14 -34 -4 3
5 1 11 -5 15 -5 3 -10 -1 -10 -9 0 -9 -5 -16 -11 -16 -6 0 -9 7 -5 15 3 9 0
15 -8 15 -8 0 -17 6 -19 13 -3 7 -6 5 -6 -5 -1 -10 4 -18 9 -18 6 0 10 -3 10
-7 0 -5 -19 -9 -43 -11 -64 -4 -111 -31 -115 -65 -3 -21 -12 -32 -35 -42 -53
-22 -124 2 -129 43 -5 40 -53 63 -136 65 -39 1 -65 5 -60 8 6 4 38 5 71 3 64
-4 147 -43 147 -68 0 -7 15 -21 34 -31 32 -18 36 -18 60 -2 14 10 26 25 26 35
0 15 -9 17 -60 15 -48 -1 -62 2 -69 16 -10 18 -72 41 -110 41 -12 0 -20 4 -17
9 3 4 -5 7 -17 5 -58 -9 -92 -17 -97 -23 -3 -3 -21 -7 -40 -9 -31 -2 -27 2 38
33 41 19 71 39 67 44 -3 6 -21 13 -40 17 -20 3 -38 10 -41 15 -3 5 -9 9 -15 9
-16 0 -10 -26 11 -45 11 -10 17 -22 13 -28 -4 -6 -10 -3 -14 9 -7 18 -8 18 -8
-2 -1 -13 -15 -27 -43 -41 -43 -21 -43 -21 -18 -31 14 -5 47 -20 73 -32 l48
-23 -23 -24 -23 -25 -3 29 c-2 15 -8 33 -14 38 -7 7 -9 -2 -5 -29 4 -25 2 -45
-6 -55 -8 -10 -4 -9 15 3 15 10 32 15 37 11 7 -4 8 1 4 12 -6 15 -4 16 8 6 9
-7 20 -8 29 -3 8 5 18 6 22 4 4 -3 8 -1 8 5 0 6 7 8 15 5 8 -3 20 -2 26 2 9 5
7 10 -7 15 -13 5 -14 8 -4 8 17 1 47 -16 40 -22 -8 -6 -220 -87 -238 -91 -28
-5 -52 -18 -52 -27 0 -4 6 -7 12 -4 33 10 138 15 138 6 0 -17 38 -33 46 -19 4
6 3 8 -3 5 -6 -4 -16 -1 -22 7 -14 17 11 30 27 14 6 -6 18 -7 29 -3 10 5 21 7
26 7 4 -1 7 2 7 6 0 4 8 8 18 8 9 1 26 4 37 8 11 4 -14 -11 -55 -32 -41 -22
-78 -38 -82 -36 -4 2 -9 0 -13 -6 -3 -5 0 -10 9 -10 8 0 16 -3 18 -7 2 -5 14
-18 28 -30 l26 -22 54 25 c29 13 59 23 65 20 14 -5 37 -78 27 -88 -4 -4 -34 4
-66 17 -73 30 -88 24 -20 -7 41 -19 66 -23 149 -23 84 1 107 4 143 24 56 29
49 37 -9 12 -24 -10 -54 -22 -66 -25 -21 -7 -21 -6 -7 40 8 26 16 50 19 52 2
3 28 -5 57 -17 29 -13 59 -25 66 -28 19 -8 -6 46 -33 72 -12 11 -16 17 -10 14
8 -6 107 -29 120 -29 3 0 4 3 3 8 -1 4 1 17 6 29 7 22 11 23 79 17 39 -3 76
-8 82 -11 5 -2 -6 9 -25 25 -19 17 -37 28 -40 26 -2 -3 2 -9 10 -14 8 -6 12
-10 9 -10 -6 0 -160 62 -229 91 l-25 11 24 9 c13 5 26 7 29 4 3 -3 0 -5 -6 -5
-20 0 -13 -17 8 -23 11 -3 20 0 20 6 0 8 4 7 12 -1 14 -14 32 -16 23 -2 -5 9
50 50 68 50 4 0 5 -13 2 -30 -3 -17 -1 -30 5 -30 5 0 10 16 10 35 0 31 4 36
42 53 l42 18 -47 18 c-35 13 -47 23 -48 39 0 21 -1 21 -9 2 -6 -15 -9 -16 -9
-4 -1 9 8 24 19 34 29 26 25 33 -25 41 l-45 6 -1 47 c0 25 -6 61 -13 79 l-12
33 -27 -21 c-15 -12 -27 -17 -27 -12 0 5 -24 20 -52 32 -52 23 -151 34 -208
24z m185 -243 c-3 -6 -14 -11 -23 -11 -15 1 -15 2 2 15 21 16 32 13 21 -4z
m-375 -167 c0 -8 -19 -13 -24 -6 -3 5 1 9 9 9 8 0 15 -2 15 -3z m303 -65 c-6
-6 -14 -4 -22 5 -9 11 -9 16 0 22 8 5 10 2 5 -7 -4 -8 -1 -6 6 4 12 16 13 16
16 1 2 -9 0 -20 -5 -25z m-47 18 c4 -4 0 -7 -9 -7 -9 0 -17 -6 -17 -12 0 -14
-20 11 -20 24 0 9 36 5 46 -5z m-176 -21 c0 -2 -7 -7 -16 -10 -8 -3 -12 -2 -9
4 6 10 25 14 25 6z m265 -23 c-4 -16 -9 -41 -12 -57 -12 -74 -47 -105 -97 -86
-24 9 -33 26 -42 77 -2 16 -6 39 -9 53 -5 24 -4 23 11 -4 18 -31 22 -48 23
-86 1 -14 5 -20 9 -15 9 13 62 14 62 0 1 -27 20 24 20 53 0 17 4 32 9 32 5 0
12 14 16 30 4 17 9 30 12 30 3 0 2 -12 -2 -27z m61 18 c-7 -10 33 -23 47 -14
5 3 3 9 -4 14 -8 5 -9 9 -3 9 15 0 46 -35 38 -43 -4 -3 10 -3 30 0 38 6 47 -5
21 -27 -12 -10 -28 -6 -86 23 -60 29 -69 39 -41 46 2 1 1 -3 -2 -8z m-286 -86
c-24 -24 -46 -42 -49 -39 -3 3 11 19 31 36 21 16 35 34 32 39 -3 5 3 9 12 9
13 0 7 -12 -26 -45z m318 -5 c5 0 12 -9 15 -20 4 -17 -3 -13 -36 16 -60 53
-67 62 -25 31 20 -15 41 -27 46 -27z m-328 25 c-7 -9 -15 -13 -19 -10 -3 3 1
10 9 15 21 14 24 12 10 -5z m163 -12 c-4 -10 -9 -11 -19 -2 -18 15 -18 15 5
15 11 0 17 -5 14 -13z m-204 -23 c-10 -28 -12 -29 -35 -14 -30 20 -30 31 -1
37 46 9 47 9 36 -23z m231 -85 c-7 -8 -22 -14 -34 -14 -20 1 -20 2 -1 6 11 3
24 9 30 14 15 14 19 10 5 -6z"/>
<path d="M655 380 c-3 -5 1 -10 10 -10 9 0 13 5 10 10 -3 6 -8 10 -10 10 -2 0
-7 -4 -10 -10z"/>
<path d="M700 356 c0 -2 7 -7 16 -10 8 -3 12 -2 9 4 -6 10 -25 14 -25 6z"/>
<path d="M211 834 c-6 -14 -11 -35 -11 -48 0 -13 -7 -29 -16 -37 -8 -7 -21
-24 -29 -38 -13 -26 -12 -26 24 -26 33 0 37 2 33 23 -2 12 -8 22 -13 22 -5 0
-8 -5 -7 -12 2 -6 -6 -13 -17 -15 -17 -3 -15 0 9 22 l28 26 16 -23 c9 -13 22
-27 29 -31 19 -11 16 -37 -4 -37 -23 0 -1 -23 24 -25 10 -1 32 -9 48 -19 17
-9 22 -15 12 -12 -10 3 -16 2 -13 -3 3 -5 17 -11 31 -13 13 -3 22 -1 19 3 -3
5 2 6 10 3 9 -3 28 4 42 15 15 12 35 19 44 16 13 -4 19 1 22 18 3 15 0 24 -9
24 -7 0 -13 -6 -13 -14 0 -23 -20 -14 -21 10 0 12 -3 16 -6 9 -4 -10 -8 -10
-21 0 -14 10 -15 10 -4 -2 17 -19 15 -41 -3 -34 -8 4 -13 9 -11 13 3 4 -3 7
-12 8 -58 6 -79 16 -75 32 2 10 -3 23 -11 30 -9 8 -16 17 -16 22 0 5 -12 28
-26 50 -14 23 -21 38 -15 35 7 -4 9 -1 5 8 -10 25 -31 25 -43 0z m160 -197
c-1 -12 -15 -9 -19 4 -3 6 1 10 8 8 6 -3 11 -8 11 -12z"/>
<path d="M740 738 c0 -9 5 -20 11 -23 17 -11 18 -2 3 19 -12 17 -14 17 -14 4z"/>
<path d="M657 607 c-3 -7 -24 -18 -48 -24 -24 -6 -53 -14 -63 -18 -15 -6 -17
-5 -11 5 5 8 4 11 -3 6 -6 -3 -13 -2 -17 4 -3 5 -11 10 -17 10 -6 0 1 -11 15
-24 l26 -24 38 19 c20 10 48 19 60 19 22 0 42 24 30 36 -2 3 -7 -1 -10 -9z"/>
<path d="M430 595 c-7 -8 -19 -15 -27 -15 -8 0 -11 -4 -8 -10 7 -11 42 8 49
27 7 17 1 16 -14 -2z"/>
<path d="M739 488 c-6 -24 -6 -38 1 -38 5 0 11 6 13 13 4 9 6 9 6 -1 1 -7 6
-10 11 -7 6 3 10 1 10 -4 0 -6 7 -11 15 -11 8 0 15 -4 15 -9 0 -5 7 -12 16
-15 26 -10 5 12 -42 44 -24 17 -44 30 -45 28z"/>
<path d="M692 298 c-19 -19 -14 -30 8 -18 11 6 20 15 20 20 0 14 -14 12 -28
-2z"/>
<path d="M155 280 c11 -14 32 -37 48 -51 l29 -26 -32 -7 c-18 -3 -60 -6 -93
-6 -33 0 -58 -2 -56 -5 6 -5 84 -8 179 -6 l65 1 -40 27 c-22 14 -42 29 -45 32
-3 3 -21 20 -40 36 -30 26 -32 26 -15 5z"/>
<path d="M740 267 c-20 -17 -51 -44 -70 -58 l-35 -27 65 -3 c36 -2 90 -1 120
2 l55 6 -65 2 c-108 4 -128 12 -92 36 18 13 69 75 60 75 -2 0 -19 -15 -38 -33z"/>
<path d="M482 134 c-7 -8 -8 -14 -3 -14 5 0 11 -15 13 -32 l3 -33 6 38 c6 44
-1 60 -19 41z"/>
<path d="M433 100 c0 -25 2 -35 4 -22 2 12 2 32 0 45 -2 12 -4 2 -4 -23z"/>
<path d="M10 126 c0 -2 9 -6 20 -9 11 -3 20 -1 20 4 0 5 -9 9 -20 9 -11 0 -20
-2 -20 -4z"/>
<path d="M150 115 c0 -9 -9 -15 -25 -15 -20 0 -25 -5 -24 -22 1 -17 2 -19 6
-5 6 22 40 22 46 0 3 -10 5 -1 6 20 0 20 -1 37 -4 37 -3 0 -5 -7 -5 -15z"/>
<path d="M340 109 c0 -13 5 -31 10 -39 7 -11 8 -5 4 20 -8 43 -14 51 -14 19z"/>
<path d="M641 109 c-1 -23 2 -26 24 -21 18 3 25 0 25 -11 0 -9 3 -18 8 -21 4
-2 5 14 3 37 -3 23 -6 34 -9 25 -2 -10 -12 -18 -22 -18 -10 0 -21 8 -23 18 -3
11 -5 8 -6 -9z"/>
<path d="M743 95 c0 -22 2 -30 4 -17 2 12 2 30 0 40 -3 9 -5 -1 -4 -23z"/>
<path d="M837 119 c7 -7 15 -10 18 -7 3 3 -2 9 -12 12 -14 6 -15 5 -6 -5z"/>
<path d="M549 118 c-6 -20 -5 -38 1 -48 5 -7 7 0 6 19 -1 26 -4 39 -7 29z"/>
<path d="M812 90 c0 -19 2 -27 5 -17 2 9 2 25 0 35 -3 9 -5 1 -5 -18z"/>
<path d="M195 90 c3 -5 8 -10 11 -10 2 0 4 5 4 10 0 6 -5 10 -11 10 -5 0 -7
-4 -4 -10z"/>
<path d="M301 84 c0 -11 3 -14 6 -6 3 7 2 16 -1 19 -3 4 -6 -2 -5 -13z"/>
<path d="M381 84 c0 -11 3 -14 6 -6 3 7 2 16 -1 19 -3 4 -6 -2 -5 -13z"/>
<path d="M836 92 c-3 -5 4 -16 15 -25 10 -9 19 -12 19 -7 0 6 -7 13 -15 16 -8
4 -12 10 -9 15 3 5 3 9 0 9 -3 0 -7 -4 -10 -8z"/>
</g>
</svg>
